<svg width="17" height="16" viewBox="0 0 17 16" fill="none" xmlns="http://www.w3.org/2000/svg">
<path d="M8.23437 9.94164C8.15174 9.91386 8.075 9.86664 8.00417 9.79997L4.74583 6.7333C4.61597 6.61108 4.55104 6.45553 4.55104 6.26664C4.55104 6.07775 4.61597 5.92219 4.74583 5.79997C4.87569 5.67775 5.04097 5.61664 5.24167 5.61664C5.44236 5.61664 5.60764 5.67775 5.7375 5.79997L8.5 8.39997L11.2625 5.79997C11.3924 5.67775 11.5576 5.61664 11.7583 5.61664C11.959 5.61664 12.1243 5.67775 12.2542 5.79997C12.384 5.92219 12.449 6.07775 12.449 6.26664C12.449 6.45553 12.384 6.61108 12.2542 6.7333L8.99583 9.79997C8.925 9.86664 8.84826 9.91386 8.76562 9.94164C8.68299 9.96942 8.59444 9.98331 8.5 9.98331C8.40555 9.98331 8.31701 9.96942 8.23437 9.94164Z" fill="#1F1F1F"/>
</svg>
