<svg width="17" height="16" viewBox="0 0 17 16" fill="none" xmlns="http://www.w3.org/2000/svg">
<path d="M8.5 7.19998L5.7375 9.79998C5.60764 9.9222 5.44236 9.98331 5.24167 9.98331C5.04097 9.98331 4.87569 9.9222 4.74583 9.79998C4.61597 9.67775 4.55104 9.5222 4.55104 9.33331C4.55104 9.14442 4.61597 8.98886 4.74583 8.86664L8.00417 5.79998C8.14583 5.66664 8.31111 5.59998 8.5 5.59998C8.68889 5.59998 8.85417 5.66664 8.99583 5.79998L12.2542 8.86664C12.384 8.98886 12.449 9.14442 12.449 9.33331C12.449 9.5222 12.384 9.67775 12.2542 9.79998C12.1243 9.9222 11.959 9.98331 11.7583 9.98331C11.5576 9.98331 11.3924 9.9222 11.2625 9.79998L8.5 7.19998Z" fill="#1F1F1F"/>
</svg>
