<svg width="20" height="20" viewBox="0 0 20 20" fill="none" xmlns="http://www.w3.org/2000/svg">
<path d="M4.99999 10.0417C4.99999 10.2639 5.01388 10.4826 5.04166 10.6979C5.06944 10.9132 5.11805 11.125 5.18749 11.3333C5.25694 11.5694 5.24999 11.7951 5.16666 12.0104C5.08333 12.2257 4.93749 12.3819 4.72916 12.4792C4.50694 12.5903 4.28819 12.6007 4.07291 12.5104C3.85763 12.4201 3.71527 12.2569 3.64583 12.0208C3.53472 11.7014 3.45486 11.375 3.40624 11.0417C3.35763 10.7083 3.33333 10.375 3.33333 10.0417C3.33333 8.18056 3.97916 6.59722 5.27083 5.29167C6.56249 3.98611 8.13888 3.33333 9.99999 3.33333H10.1458L9.39583 2.58333C9.24305 2.43056 9.16666 2.23611 9.16666 2C9.16666 1.76389 9.24305 1.56944 9.39583 1.41667C9.54861 1.26389 9.74305 1.1875 9.97916 1.1875C10.2153 1.1875 10.4097 1.26389 10.5625 1.41667L12.7292 3.58333C12.8958 3.75 12.9792 3.94444 12.9792 4.16667C12.9792 4.38889 12.8958 4.58333 12.7292 4.75L10.5625 6.91667C10.4097 7.06944 10.2153 7.14583 9.97916 7.14583C9.74305 7.14583 9.54861 7.06944 9.39583 6.91667C9.24305 6.76389 9.16666 6.56944 9.16666 6.33333C9.16666 6.09722 9.24305 5.90278 9.39583 5.75L10.1458 5H9.99999C8.61111 5 7.43055 5.48958 6.45833 6.46875C5.48611 7.44792 4.99999 8.63889 4.99999 10.0417ZM15 9.95833C15 9.73611 14.9861 9.51736 14.9583 9.30208C14.9305 9.08681 14.8819 8.875 14.8125 8.66667C14.743 8.43056 14.75 8.20486 14.8333 7.98958C14.9167 7.77431 15.0625 7.61806 15.2708 7.52083C15.493 7.40972 15.7118 7.39931 15.9271 7.48958C16.1424 7.57986 16.2847 7.74306 16.3542 7.97917C16.4653 8.29861 16.5451 8.625 16.5937 8.95833C16.6424 9.29167 16.6667 9.625 16.6667 9.95833C16.6667 11.8194 16.0208 13.4028 14.7292 14.7083C13.4375 16.0139 11.8611 16.6667 9.99999 16.6667H9.85416L10.6042 17.4167C10.7569 17.5694 10.8333 17.7639 10.8333 18C10.8333 18.2361 10.7569 18.4306 10.6042 18.5833C10.4514 18.7361 10.2569 18.8125 10.0208 18.8125C9.78472 18.8125 9.59027 18.7361 9.43749 18.5833L7.27083 16.4167C7.10416 16.25 7.02083 16.0556 7.02083 15.8333C7.02083 15.6111 7.10416 15.4167 7.27083 15.25L9.43749 13.0833C9.59027 12.9306 9.78472 12.8542 10.0208 12.8542C10.2569 12.8542 10.4514 12.9306 10.6042 13.0833C10.7569 13.2361 10.8333 13.4306 10.8333 13.6667C10.8333 13.9028 10.7569 14.0972 10.6042 14.25L9.85416 15H9.99999C11.3889 15 12.5694 14.5104 13.5417 13.5313C14.5139 12.5521 15 11.3611 15 9.95833Z" fill="#1F1F1F"/>
</svg>
